PathFileType	4	(X/Y/Z)	9_coords_data.trc
DataRate	CameraRate	NumFrames	NumMarkers	Units	OrigDataRate	OrigDataStartFrame	OrigNumFrames
30.0	30.0	7	21	m	30.0	50	59
Frame#	Time	THUMB_TIP	THUMB_IP	THUMB_MCP	THUMB_CMC	INDEX_TIP	INDEX_DIP	INDEX_PIP	INDEX_MCP	MIDDLE_TIP	MIDDLE_DIP	MIDDLE_PIP	MIDDLE_MCP	RING_TIP	RING_DIP	RING_PIP	RING_MCP	PINKY_TIP	PINKY_DIP	PINKY_PIP	PINKY_MCP	WRIST
X1	Y1	Z1	X2	Y2	Z2	X3	Y3	Z3	X4	Y4	Z4	X5	Y5	Z5	X6	Y6	Z6	X7	Y7	Z7	X8	Y8	Z8	X9	Y9	Z9	X10	Y10	Z10	X11	Y11	Z11	X12	Y12	Z12	X13	Y13	Z13	X14	Y14	Z14	X15	Y15	Z15	X16	Y16	Z16	X17	Y17	Z17	X18	Y18	Z18	X19	Y19	Z19	X20	Y20	Z20	X21	Y21	Z21
49	1.6333333333333333	0.06490239715576172	-0.02620400047302246	0.9781740112304688	0.04583969879150391	-0.027844200134277342	0.9977739868164063	0.023415199279785158	-0.02554509925842285	1.0179000244140626	0.002731519937515259	-0.00620363998413086	1.03352001953125	0.04261439895629883	-0.006127970218658447	0.9079979858398437	0.02672529983520508	-0.012567299842834473	0.9213809814453126	0.010727100372314453	-0.018298999786376953	0.9367750244140625	-0.000838714003562927	-0.01969510078430176	0.9755430297851563	0.035276298522949216	0.0268356990814209	0.8960070190429688	0.018834199905395508	0.01932029914855957	0.9119459838867188	-0.001315549969673156	0.0110108003616333	0.9324010009765625	-0.011251999855041503	0.001809839963912963	0.9731420288085938	0.022176900863647462	0.04864910125732422	0.9048759765625	0.007604050159454346	0.04305680084228516	0.9227880249023438	-0.009738530158996582	0.03490760040283203	0.9442230224609375	-0.015897299766540526	0.02309199905395508	0.9803930053710938	0.014416099548339844	0.08137539672851563	0.950427978515625	0.002359760046005249	0.07262909698486328	0.9639500122070312	-0.008279450416564941	0.06268330001831054	0.9763350219726562	-0.0151628999710083	0.04333869934082031	0.9955999755859375	-0.031154399871826173	0.001335999965667724	1.056800048828125
50	1.6666666666666667	0.06512409973144531	-0.02654409980773926	0.9784749755859375	0.0458922004699707	-0.02834659957885742	0.9979390258789063	0.023241500854492187	-0.026181600570678712	1.018030029296875	0.002428970098495483	-0.007200669765472412	1.03375	0.04278110122680664	-0.006948090076446533	0.9081719970703125	0.02684939956665039	-0.013328700065612794	0.921385009765625	0.01075570011138916	-0.019073999404907227	0.93672900390625	-0.001155599951744079	-0.020507600784301756	0.9756409912109375	0.035611099243164065	0.026015499114990234	0.8961480102539062	0.019076099395751955	0.01854599952697754	0.9120399780273437	-0.00121326994895935	0.010316100120544434	0.9324039916992187	-0.011421199798583984	0.001068470001220703	0.9731519775390625	0.022989200592041015	0.0480989990234375	0.9052769775390626	0.008142100334167481	0.04253739929199219	0.9231099853515625	-0.009345800399780273	0.034394100189208986	0.944281982421875	-0.01580210018157959	0.022474399566650392	0.9803560180664063	0.015718000411987305	0.08069509887695313	0.9512410278320312	0.003368279933929443	0.07194039916992187	0.9645430297851563	-0.007600379943847656	0.06200490188598633	0.9767789916992188	-0.0149375	0.042562698364257814	0.9956729736328125	-0.031263999938964844	0.00047596400976181	1.0566500244140624
51	1.7	0.06490599822998047	-0.027236799240112304	0.9788389892578125	0.045747600555419925	-0.029047399520874023	0.9979949951171875	0.023134599685668944	-0.026955099105834962	1.018010009765625	0.002651789903640747	-0.007857759952545167	1.0332099609375	0.043204200744628905	-0.007517260074615478	0.9085650024414063	0.02716189956665039	-0.01391699981689453	0.921635009765625	0.011038700103759765	-0.019639299392700194	0.9368720092773437	-0.001146059989929199	-0.02119099998474121	0.9755850219726563	0.03614009857177734	0.025517900466918944	0.8965050048828125	0.019546100616455078	0.01801460075378418	0.9122780151367188	-0.0009289550185203551	0.009795669555664063	0.9325670166015625	-0.01137030029296875	0.00044371899962425204	0.9732340087890625	0.02377560043334961	0.04758570098876953	0.9057119750976562	0.008850910186767579	0.04202970123291016	0.9233699951171875	-0.008903739929199218	0.03390039825439453	0.9444210205078125	-0.015590299606323242	0.021844600677490233	0.9805360107421875	0.016456300735473633	0.07990650177001953	0.9516380004882813	0.0037959001064300528	0.0712302017211914	0.9647490234375	-0.007321189880371093	0.06133440017700195	0.9769530029296875	-0.01474209976196289	0.04191320037841797	0.9957769775390625	-0.031439599990844724	-0.00012046299874782502	1.0566400146484376
52	1.7333333333333334	0.06514920043945313	-0.027514400482177733	0.9789299926757813	0.04581399917602539	-0.02942740058898926	0.9983720092773437	0.02324530029296875	-0.027421899795532226	1.0181599731445312	0.002559469938278198	-0.008190250396728516	1.0337099609375	0.04359489822387695	-0.008036049842834472	0.9088779907226563	0.027527900695800783	-0.01448069953918457	0.921927978515625	0.01126889991760254	-0.02023310089111328	0.9371099853515625	-0.0010530400276184079	-0.021811399459838867	0.9758400268554688	0.03646070098876953	0.02476729965209961	0.8966539916992188	0.019873199462890626	0.01735409927368164	0.912406982421875	-0.000653122007846832	0.009127300262451172	0.932677978515625	-0.011275699615478516	-0.000107314996421337	0.9734819946289063	0.024315900802612304	0.04682379913330078	0.9058930053710937	0.00924800968170166	0.04130619812011719	0.9235029907226563	-0.008568559646606445	0.03322359848022461	0.9444949951171875	-0.015543399810791015	0.021262300491333007	0.9806370239257812	0.016666799545288085	0.07886009979248047	0.9513569946289062	0.00401239013671875	0.0703395004272461	0.9644539794921875	-0.00730590009689331	0.06056809997558594	0.9767139892578125	-0.014702699661254882	0.04137220001220703	0.9956339721679688	-0.0313484001159668	-0.000603052973747253	1.0566700439453125
53	1.7666666666666666	0.0655698013305664	-0.027261100769042968	0.9791530151367187	0.046127300262451175	-0.029295700073242188	0.9988619995117187	0.02324720001220703	-0.02728300094604492	1.0188200073242188	0.002640830039978027	-0.008392250061035156	1.0336600341796875	0.04386790084838867	-0.008478730201721192	0.9090609741210938	0.02780109977722168	-0.01494499969482422	0.9220869750976562	0.011527799606323242	-0.020705299377441408	0.937198974609375	-0.000678992986679077	-0.02212070083618164	0.975822998046875	0.03649079895019531	0.024331600189208984	0.896676025390625	0.0198976993560791	0.01683289909362793	0.9124140014648437	-0.0005573629736900331	0.008587180137634277	0.9326820068359375	-0.011199399948120118	-0.000614585995674133	0.9734359741210937	0.024396799087524415	0.046324798583984375	0.9059130249023437	0.00925730037689209	0.04078499984741211	0.923468994140625	-0.008568619728088379	0.032663600921630856	0.9444039916992187	-0.01570549964904785	0.02083139991760254	0.9804719848632812	0.016744300842285155	0.07848030090332031	0.9514600219726562	0.004051340103149414	0.0699446029663086	0.9645360107421875	-0.007264309883117675	0.06016740036010742	0.9766489868164062	-0.014905200004577637	0.0409822998046875	0.9955980224609375	-0.031221700668334962	-0.000897566974163055	1.0566700439453125
54	1.8	0.06557839965820313	-0.026871700286865235	0.9792000122070312	0.04627809906005859	-0.02911490058898926	0.99860302734375	0.023416099548339845	-0.02735070037841797	1.0185599975585937	0.002394259929656982	-0.008444230079650878	1.03375	0.04380379867553711	-0.008615779876708984	0.9089219970703125	0.027699100494384767	-0.015147700309753417	0.921989990234375	0.011485300064086913	-0.020969400405883788	0.9371690063476562	-0.000640905022621154	-0.022375499725341797	0.9759080200195313	0.03624539947509765	0.024110300064086914	0.896448974609375	0.01967210006713867	0.016535600662231444	0.9122109985351563	-0.000642678022384643	0.008259900093078613	0.9324879760742187	-0.011274200439453125	-0.000899078011512756	0.973281005859375	0.024260599136352538	0.046246898651123046	0.9058510131835937	0.009148289680480957	0.04064450073242187	0.9233880004882813	-0.008737099647521973	0.032450599670410155	0.9442670288085937	-0.015758999824523924	0.02054330062866211	0.9802960205078125	0.01687030029296875	0.07839859771728516	0.9516740112304688	0.004113019943237305	0.06981939697265625	0.96464697265625	-0.007453670024871826	0.059986301422119144	0.9767100219726562	-0.015045000076293944	0.040692100524902346	0.9954030151367188	-0.031607000350952145	-0.001261059999465942	1.0566500244140624
55	1.8333333333333333	0.0654395980834961	-0.02685479927062988	0.9789310302734375	0.04619290161132812	-0.02921139907836914	0.9985670166015626	0.023244800567626952	-0.027526500701904297	1.0183099975585939	0.002412400007247925	-0.008561409950256348	1.033550048828125	0.04389120101928711	-0.008632579803466796	0.9087479858398437	0.027788700103759764	-0.015170599937438965	0.9217420043945312	0.011545100212097169	-0.0210398006439209	0.936875	-0.0008797789812088011	-0.02249850082397461	0.9756199951171876	0.03619079971313476	0.02412649917602539	0.8962440185546875	0.019694400787353517	0.016526100158691406	0.911947021484375	-0.0007080309987068171	0.008184040069580078	0.9321749877929687	-0.011257800102233886	-0.0009695940017700191	0.97289697265625	0.0244960994720459	0.04624530029296875	0.90581201171875	0.0093329496383667	0.04061690139770508	0.92322900390625	-0.00860927963256836	0.03239530181884766	0.9439990234375	-0.01594849967956543	0.020423200607299803	0.9800869750976563	0.01684040069580078	0.07809619903564453	0.95139697265625	0.0039894700050354	0.06959909820556641	0.964260009765625	-0.007551330089569092	0.05980110168457031	0.976281982421875	-0.015122300148010253	0.04054299926757812	0.9950750122070312	-0.03159250068664551	-0.001249559998512268	1.0562900390625
